PathFileType	4	(X/Y/Z)	/Users/itak/Documents/Research/Walk-IL/dataset/trc/00109_00007.trc
DataRate	CameraRate	NumFrames	NumMarkers	Units	OrigDataRate	OrigDataStartFrame	OrigNumFrames
100.000000	100.000000	4	53	mm	100.000000	361	579
Frame#	Time	RPSI			LPSI			L3			STRN			T10			C7			CLAV			RBAK			LBAK			LSHO			LUPA			LAEL			LAOL			LWTS			LWPS			LFRA			LIFD			LHPS			LHTS			RSHO			RUPA			RAEL			RAOL			RWTS			RWPS			RFRA			RIFD			RHTS			RHPS			RBHD			LFHD			RFHD			LBHD			LHIP			RHIP			RASI			LASI			LKNE			LTHI			LANK			LTIP			LTOE			LMT1			LMT5			LHEE			RKNE			RTHI			RANK			RTIP			RTOE			RMT1			RMT5			RHEE			
		X1	Y1	Z1	X2	Y2	Z2	X3	Y3	Z3	X4	Y4	Z4	X5	Y5	Z5	X6	Y6	Z6	X7	Y7	Z7	X8	Y8	Z8	X9	Y9	Z9	X10	Y10	Z10	X11	Y11	Z11	X12	Y12	Z12	X13	Y13	Z13	X14	Y14	Z14	X15	Y15	Z15	X16	Y16	Z16	X17	Y17	Z17	X18	Y18	Z18	X19	Y19	Z19	X20	Y20	Z20	X21	Y21	Z21	X22	Y22	Z22	X23	Y23	Z23	X24	Y24	Z24	X25	Y25	Z25	X26	Y26	Z26	X27	Y27	Z27	X28	Y28	Z28	X29	Y29	Z29	X30	Y30	Z30	X31	Y31	Z31	X32	Y32	Z32	X33	Y33	Z33	X34	Y34	Z34	X35	Y35	Z35	X36	Y36	Z36	X37	Y37	Z37	X38	Y38	Z38	X39	Y39	Z39	X40	Y40	Z40	X41	Y41	Z41	X42	Y42	Z42	X43	Y43	Z43	X44	Y44	Z44	X45	Y45	Z45	X46	Y46	Z46	X47	Y47	Z47	X48	Y48	Z48	X49	Y49	Z49	X50	Y50	Z50	X51	Y51	Z51	X52	Y52	Z52	X53	Y53	Z53	

362	3.61	-748.0619506835938	1101.816772460938	-294.9776916503906	-739.2294921875	1103.579467773438	-430.2521362304688	-750.1583862304688	1144.469116210938	-370.8653259277344	-506.7186584472656	1331.309814453125	-373.421630859375	-765.5235595703125	1301.5107421875	-389.2467346191406	-697.1485595703125	1587.217041015625	-423.3390197753906	-527.7713623046875	1469.066650390625	-387.2495422363281	-775.37451171875	1411.624633789062	-333.4411315917969	-694.7020874023438	1563.149047851562	-524.5335693359375	-602.048828125	1539.642700195312	-579.790771484375	-613.7980346679688	1405.757934570312	-645.5234375	-584.9881591796875	1187.08984375	-658.9511108398438	-658.556396484375	1170.585327148438	-614.1265258789062	-459.7305908203125	951.3465576171875	-582.1897583007812	-529.5650024414062	911.0843505859375	-619.4567260742188	-554.2681884765625	1074.01171875	-652.7841186523438	-421.9535522460938	765.3599853515625	-542.1815795898438	-488.4656982421875	842.4791870117188	-610.2299194335938	-428.0143432617188	866.1928100585938	-583.7820434570312	-664.7526245117188	1571.78955078125	-235.0828247070312	-696.1165771484375	1502.806640625	-173.1257781982422	-746.3580322265625	1215.93359375	-140.5848083496094	-731.4300537109375	1207.19921875	-236.5662689208984	-625.6428833007812	964.5820922851562	-103.2950744628906	-705.8765869140625	954.7326049804688	-89.99604034423828	-733.8260498046875	1142.495849609375	-115.4114456176758	-613.5973510742188	767.5271606445312	-97.267333984375	-606.7478637695312	855.6652221679688	-82.31140899658203	-679.1842651367188	854.56591796875	-68.86780548095703	-668.60009765625	1739.163696289062	-332.8218078613281	-504.2737731933594	1828.290893554688	-448.1891784667969	-513.6790161132812	1823.082763671875	-318.6877136230469	-667.447265625	1747.837890625	-468.1795349121094	-646.6776123046875	1011.512573242188	-534.4046630859375	-619.005126953125	1011.546875	-169.5869750976562	-540.271728515625	1084.943725585938	-229.7308349609375	-536.2919311523438	1069.801391601562	-492.0935363769531	-651.6878662109375	506.9170227050781	-486.0729064941406	-657.2706909179688	656.1900634765625	-519.3289794921875	-926.3590698242188	58.62316513061523	-481.2459716796875	-826.4876098632812	294.7040100097656	-514.5477905273438	-704.2506103515625	35.76761627197266	-404.3861694335938	-786.2268676757812	46.58229827880859	-380.5762939453125	-803.4600830078125	34.37071228027344	-496.25830078125	-999.3720703125	84.02909088134766	-426.2317810058594	-482.79833984375	542.0150756835938	-201.6860198974609	-551.05126953125	807.3355712890625	-168.4939270019531	-418.9168090820312	24.11467933654785	-226.1579437255859	-466.0633544921875	409.1039123535156	-190.2767944335938	-193.8277893066406	58.80635070800781	-285.6724548339844	-253.6660461425781	50.53723907470703	-327.4320373535156	-282.2388610839844	39.16781234741211	-212.4874420166016	-478.8186645507812	29.23701286315918	-273.0276489257812	
363	3.62	-758.69091796875	1101.211547851562	-296.5495910644531	-748.993408203125	1103.724609375	-431.6922607421875	-760.8317260742188	1144.22265625	-372.5009155273438	-515.4854125976562	1330.943237304688	-374.2202453613281	-774.4978637695312	1301.897094726562	-390.4831848144531	-704.5596313476562	1587.36181640625	-425.2103881835938	-535.7189331054688	1468.848388671875	-388.4830322265625	-783.6770629882812	1412.335571289062	-334.9036254882812	-701.9525756835938	1563.0087890625	-526.3668212890625	-609.351806640625	1539.003662109375	-581.2766723632812	-620.8311767578125	1405.152587890625	-647.0513916015625	-591.2070922851562	1186.55908203125	-660.56396484375	-665.4691162109375	1169.877197265625	-616.7783813476562	-466.65283203125	950.8742065429688	-582.4839477539062	-535.8296508789062	910.5506591796875	-620.8353881835938	-560.3706665039062	1073.511596679688	-654.1708984375	-429.0806884765625	764.9199829101562	-542.2075805664062	-494.7183837890625	842.00244140625	-611.1227416992188	-434.7102661132812	865.8018188476562	-583.7633666992188	-672.554443359375	1572.417114257812	-236.8161163330078	-704.0866088867188	1503.494750976562	-174.8484497070312	-753.9801635742188	1216.32861328125	-142.4822540283203	-739.0283203125	1207.679443359375	-238.4692993164062	-631.9896240234375	965.6080932617188	-105.1696929931641	-712.1237182617188	955.3233032226562	-91.84832000732422	-741.164306640625	1142.8955078125	-117.3170013427734	-618.8234252929688	768.6730346679688	-98.59238433837891	-612.5487060546875	856.8499145507812	-83.91664886474609	-684.9234619140625	855.40087890625	-70.49574279785156	-676.2617797851562	1738.87939453125	-335.4528198242188	-511.8097839355469	1828.152099609375	-450.5462036132812	-521.6422729492188	1823.12451171875	-320.9922180175781	-674.7347412109375	1747.260498046875	-470.8363342285156	-655.9405517578125	1012.218627929688	-535.8170776367188	-629.7023315429688	1010.574157714844	-171.0924224853516	-550.9749755859375	1084.566650390625	-230.6074981689453	-545.7686767578125	1070.16357421875	-492.9621276855469	-661.4436645507812	507.96337890625	-488.2164611816406	-667.2826538085938	657.085205078125	-521.2066040039062	-927.5899047851562	55.65875244140625	-480.45849609375	-832.2998046875	292.8553161621094	-515.2210083007812	-704.1502075195312	35.71391677856445	-404.3799438476562	-786.5487670898438	45.98450088500977	-380.3186645507812	-803.836181640625	34.34816360473633	-496.2658081054688	-1001.018310546875	79.11566162109375	-425.1705322265625	-488.5521545410156	542.88037109375	-201.6976013183594	-560.639404296875	807.20263671875	-168.8142242431641	-421.2615966796875	24.30654716491699	-225.0585784912109	-470.9939270019531	409.9976501464844	-189.9824523925781	-196.9569244384766	63.14736175537109	-284.0220031738281	-256.7225952148438	54.4631462097168	-325.9424133300781	-284.8028259277344	39.60442352294922	-211.4282989501953	-481.3348388671875	29.2144775390625	-271.7990417480469	
364	3.63	-769.0123901367188	1100.868774414062	-298.1707458496094	-758.5494995117188	1104.02392578125	-433.195556640625	-771.2083129882812	1144.197631835938	-374.1201782226562	-524.1749877929688	1330.8232421875	-374.9620056152344	-783.2879638671875	1302.427734375	-391.567138671875	-712.0264892578125	1587.708618164062	-426.8171997070312	-543.6561889648438	1468.86279296875	-389.5672912597656	-791.8956298828125	1413.2255859375	-336.0429077148438	-709.3170166015625	1563.079345703125	-527.9403076171875	-616.7715454101562	1538.61669921875	-582.53466796875	-627.9266357421875	1404.808959960938	-648.3597412109375	-597.390869140625	1186.330078125	-661.9802856445312	-672.3507080078125	1169.450561523438	-619.2596435546875	-473.8040161132812	950.4601440429688	-582.8168334960938	-542.34521484375	910.2244262695312	-622.3314819335938	-566.514892578125	1073.285766601562	-655.4690551757812	-436.7342834472656	764.44482421875	-542.5071411132812	-501.33154296875	841.6651000976562	-612.2032470703125	-441.7785339355469	865.4121704101562	-583.8805541992188	-680.2533569335938	1573.28369140625	-238.3099060058594	-711.8810424804688	1504.43701171875	-176.2778625488281	-761.5245971679688	1216.97265625	-144.1410827636719	-746.6407470703125	1208.456298828125	-240.1591033935547	-638.27587890625	966.8465576171875	-106.9956817626953	-718.3101196289062	956.1157836914062	-93.63294219970703	-748.4365234375	1143.532470703125	-119.0326538085938	-624.0347900390625	770.0077514648438	-100.1662445068359	-618.3377685546875	858.2008056640625	-85.63564300537109	-690.6141967773438	856.3948974609375	-72.20622253417969	-683.887939453125	1738.973022460938	-337.9611511230469	-519.2986450195312	1828.124389648438	-452.9659423828125	-529.4678344726562	1823.491088867188	-323.3886108398438	-682.0423583984375	1746.880126953125	-473.3764038085938	-664.9716186523438	1013.049133300781	-537.2586669921875	-640.086181640625	1009.878356933594	-172.6670074462891	-561.3404541015625	1084.420532226562	-231.5540618896484	-555.0756225585938	1070.764038085938	-493.8997497558594	-670.4152221679688	509.0804443359375	-490.0986328125	-676.6058349609375	658.0311279296875	-522.9491577148438	-928.4693603515625	53.12489700317383	-480.0723571777344	-837.2649536132812	291.2284851074219	-516.037353515625	-704.1346435546875	35.66217422485352	-404.3464050292969	-786.8508911132812	45.45213317871094	-380.1472473144531	-804.0650634765625	34.29119110107422	-496.3697814941406	-1002.284606933594	74.83966064453125	-424.6791381835938	-494.0151672363281	544.00439453125	-201.7222747802734	-569.92822265625	807.392822265625	-169.1920928955078	-424.8330993652344	24.57985687255859	-223.9088287353516	-475.9228515625	411.0636291503906	-189.7114410400391	-201.2811584472656	67.68170166015625	-281.9693298339844	-260.8872680664062	58.47207260131836	-324.1773986816406	-288.7068481445312	40.20675277709961	-210.1179351806641	-484.9915161132812	29.19701957702637	-270.6122131347656	
365	3.64	-778.994384765625	1100.774658203125	-299.8391418457031	-767.8663940429688	1104.470947265625	-434.7611083984375	-781.2549438476562	1144.410888671875	-375.7174987792969	-532.7747802734375	1330.950561523438	-375.6772155761719	-791.92041015625	1303.09521484375	-392.5506286621094	-719.5399169921875	1588.260009765625	-428.1686706542969	-551.5768432617188	1469.111083984375	-390.5332336425781	-800.0360717773438	1414.28515625	-336.8915405273438	-716.7991333007812	1563.37451171875	-529.2619018554688	-624.3170776367188	1538.500732421875	-583.5928344726562	-635.1114501953125	1404.73974609375	-649.4578247070312	-603.580810546875	1186.4091796875	-663.1871337890625	-679.2064819335938	1169.320678710938	-621.5111083984375	-481.1909790039062	950.115478515625	-583.2105102539062	-549.1342163085938	910.1201171875	-623.9207763671875	-572.7413330078125	1073.33984375	-656.6631469726562	-444.8769836425781	763.9525756835938	-543.1113891601562	-508.3288269042969	841.4810180664062	-613.4671020507812	-449.207275390625	865.0473022460938	-584.16845703125	-687.839599609375	1574.35595703125	-239.5757598876953	-719.4840698242188	1505.594970703125	-177.4253845214844	-768.986083984375	1217.840209960938	-145.5287933349609	-754.2938232421875	1209.496826171875	-241.6020355224609	-644.50341796875	968.2649536132812	-108.7732925415039	-724.4485473632812	957.0839233398438	-95.32121276855469	-755.62646484375	1144.38232421875	-120.5272064208984	-629.2250366210938	771.5008544921875	-102.0100479125977	-624.08447265625	859.6959838867188	-87.48164367675781	-696.2379760742188	857.5115966796875	-73.98418426513672	-691.47216796875	1739.442260742188	-340.31884765625	-526.75	1828.212158203125	-455.4341125488281	-537.166015625	1824.17041015625	-325.8525390625	-689.3798828125	1746.699584960938	-475.7729797363281	-673.7388305664062	1013.985046386719	-538.7173461914062	-650.1475830078125	1009.484741210938	-174.2888641357422	-571.361572265625	1084.5166015625	-232.5604248046875	-564.1796264648438	1071.574951171875	-494.8990478515625	-678.7101440429688	510.2691040039062	-491.6751098632812	-685.27978515625	659.0230102539062	-524.5146484375	-929.0844116210938	50.97734832763672	-479.9903259277344	-841.5552368164062	289.8326416015625	-516.9178466796875	-704.1898803710938	35.61458969116211	-404.2747192382812	-787.1393432617188	44.98754119873047	-380.0361328125	-804.1810302734375	34.2111701965332	-496.5315246582031	-1003.26611328125	71.12633514404297	-424.6321716308594	-499.1668090820312	545.3878784179688	-201.8114166259766	-578.84521484375	807.9270629882812	-169.6711273193359	-429.9030456542969	24.9274959564209	-222.7314147949219	-480.9263305664062	412.2821044921875	-189.5198211669922	-207.020263671875	72.20810699462891	-279.4712219238281	-266.3463745117188	62.38256072998047	-322.1082458496094	-294.22216796875	41.01200866699219	-208.5128173828125	-490.0267028808594	29.14646339416504	-269.5243225097656	
